# xmcd
#
# Track frame offsets: 
#        150
#        12298
#        30098
#        52149
#        68528
#        81174
#        96390
#        109928
#        122599
#        136170
#        155526
#        172247
#        187777
#        200914
#        214651
#
# Disc length: 3034 seconds
#
# Revision: 0
# Processed by: cddbd v1.5.2PL0 Copyright (c) Steve Scherf et al.
# Submitted via: ExactAudioCopy v0.99pb3
#
DISCID=cc0bd80f
DTITLE=Various Artist - France Bluegrass vol.2, cd.1
DYEAR=2005
DGENRE=Bluegrass
TTITLE0=Turquoise - East Virginia blues
TTITLE1=Sainte-Foy Family Réunion - Ace of spades
TTITLE2=Quartier Français - Every little kiss
TTITLE3=Hoboes - Miss the Mississipi and you
TTITLE4=Gilles Rézard - Interférences
TTITLE5=Lonesome Day - Standing in the water
TTITLE6=Tennesse Stud - Where I long to go
TTITLE7=Usual Suspects - Old fashionned love
TTITLE8=Cabin 12 - Ain't no sunshine
TTITLE9=Jack Danielle's String Band - Little Sadie
TTITLE10=Nashville Airplane - The letter
TTITLE11=Mary Lou - Comme qui dirait
TTITLE12=Ghislain Kosiba - Desolation Road
TTITLE13=Palomino Bluegrass Band - Nine pound hammer
TTITLE14=Navarre and Lacote - Over the rainbow
EXTD=
EXTT0=
EXTT1=
EXTT2=
EXTT3=
EXTT4=
EXTT5=
EXTT6=
EXTT7=
EXTT8=
EXTT9=
EXTT10=
EXTT11=
EXTT12=
EXTT13=
EXTT14=
PLAYORDER=
